HIERARCHY
ROOT root     
{
	OFFSET 0.0000 0.0000 0.0000
	CHANNELS 6 Xposition Yposition Zposition Zrotation Yrotation Xrotation
	JOINT pelvis   
	{
		OFFSET 0.0000 0.0000 0.0000
		CHANNELS 3 Zrotation Yrotation Xrotation
		JOINT thorax   
		{
			OFFSET 0.0000 23.0750 -5.0000
			CHANNELS 3 Zrotation Yrotation Xrotation
			JOINT rclavicle
			{
				OFFSET 0.0000 28.0009 0.0000
				CHANNELS 3 Zrotation Yrotation Xrotation
				JOINT rhumerus 
				{
					OFFSET -18.5725 5.5939 0.0000
					CHANNELS 3 Zrotation Yrotation Xrotation
					JOINT rradius  
					{
						OFFSET -24.8459 0.0000 0.0000
						CHANNELS 3 Zrotation Yrotation Xrotation
						JOINT rhand    
						{
							OFFSET -24.5477 0.0000 0.0000
							CHANNELS 3 Zrotation Yrotation Xrotation
							End Site
							{
								OFFSET -8.1826 0.0000 0.0000
							}
						}
					}
				}
			}
			JOINT lclavicle
			{
				OFFSET 0.0000 28.0009 0.0000
				CHANNELS 3 Zrotation Yrotation Xrotation
				JOINT lhumerus 
				{
					OFFSET 18.5725 5.5939 0.0000
					CHANNELS 3 Zrotation Yrotation Xrotation
					JOINT lradius  
					{
						OFFSET 24.8459 0.0000 0.0000
						CHANNELS 3 Zrotation Yrotation Xrotation
						JOINT lhand    
						{
							OFFSET 24.5477 0.0000 0.0000
							CHANNELS 3 Zrotation Yrotation Xrotation
							End Site
							{
								OFFSET 8.1826 0.0000 0.0000
							}
						}
					}
				}
			}
			JOINT head     
			{
				OFFSET 0.0000 35.2030 0.0000
				CHANNELS 3 Zrotation Yrotation Xrotation
				End Site
				{
					OFFSET 0.0000 11.7343 0.0000
				}
			}
		}
		JOINT rfemur   
		{
			OFFSET -8.2817 0.0000 0.0000
			CHANNELS 3 Zrotation Yrotation Xrotation
			JOINT rtibia   
			{
				OFFSET 0.0000 -43.3627 0.0000
				CHANNELS 3 Zrotation Yrotation Xrotation
				JOINT rfoot    
				{
					OFFSET 0.0000 -38.2947 0.0000
					CHANNELS 3 Zrotation Yrotation Xrotation
					JOINT rtoes    
					{
						OFFSET 0.0000 0.0000 16.6054
						CHANNELS 3 Zrotation Yrotation Xrotation
						End Site
						{
							OFFSET 0.0000 0.0000 5.5351
						}
					}
				}
			}
		}
		JOINT lfemur   
		{
			OFFSET 8.2817 0.0000 0.0000
			CHANNELS 3 Zrotation Yrotation Xrotation
			JOINT ltibia   
			{
				OFFSET 0.0000 -43.3627 0.0000
				CHANNELS 3 Zrotation Yrotation Xrotation
				JOINT lfoot    
				{
					OFFSET 0.0000 -38.2947 0.0000
					CHANNELS 3 Zrotation Yrotation Xrotation
					JOINT ltoes    
					{
						OFFSET 0.0000 0.0000 16.6054
						CHANNELS 3 Zrotation Yrotation Xrotation
						End Site
						{
							OFFSET 0.0000 0.0000 5.5351
						}
					}
				}
			}
		}
	}
}
MOTION
Frames: 7
Frame Time: .0333333
-17.27 78.835 -3.969 -11.6789 59.2865 14.5095 0 -0 0 -9.90359 -8.3061 21.2643 21.6423 -10.9931 -2.94101e-05 56.0159 -15.0409 12.9175 -1.08631e-06 71.1389 -1.51905e-06 -4.26277 3.74157 -0.139297 -9.15216 9.42996 2.5768e-06 -39.2998 7.96271 -0.309671 1.39714e-06 -80.5061 -1.18295e-06 2.11126 4.79374 0.0883982 11.7387 -4.25176 -5.1757 10.7395 -8.86563 -53.4048 -0 -0 68.9443 -1.12059e-05 -12.2586 -9.57996 2.07096 4.15165e-06 -9.74309 -9.41287 22.7068 -58.7122 -0 -0 58.7921 1.30559e-05 8.86852 -12.3902 -1.91746 1.44037e-05 -29.5239 
-16.951 78.88 -3.9211 -11.5485 58.8234 14.7421 0 -0 0 -9.80922 -8.47392 21.3024 21.6655 -11.0035 -3.58167e-05 55.99 -15.0692 12.7571 -1.06826e-06 70.8732 -1.50116e-06 -4.21174 3.75881 -0.138298 -9.10195 9.43377 1.64196e-06 -38.9608 7.73043 -0.630296 1.3957e-06 -80.496 -1.18151e-06 2.21657 4.91166 0.095099 11.8123 -4.3187 -5.366 10.9897 -8.83358 -54.2386 -0 -0 67.8293 1.63703e-05 -12.5181 -9.49198 2.09698 9.61687e-06 -9.30989 -9.57353 23.0122 -58.577 -0 -0 58.7989 -2.39012e-05 9.04585 -12.5787 -1.98567 1.95811e-05 -29.8184 
-16.626 78.925 -3.8681 -11.4003 58.3566 14.9792 0 -0 0 -9.7114 -8.63657 21.3391 21.6894 -11.0108 2.25111e-05 55.9763 -15.1003 12.5839 -1.05013e-06 70.6296 -7.43919e-07 -4.15018 3.76963 -0.136605 -9.05731 9.43556 1.92367e-06 -38.6411 7.52585 -0.932855 1.67191e-06 -80.4984 -1.97483e-06 2.31732 5.01994 0.101601 11.8894 -4.39397 -5.55913 11.2786 -8.85215 -55.0428 -0 -0 66.6724 -6.79124e-06 -12.7876 -9.36448 2.11501 4.25799e-06 -8.99387 -9.73417 23.3107 -58.416 -0 -0 58.7916 -1.89677e-05 9.23418 -12.7655 -2.05729 -6.958e-06 -30.1163 
-16.297 78.97 -3.8094 -11.2391 57.8865 15.2182 0 -0 0 -9.60793 -8.7934 21.3742 21.712 -11.0262 4.71448e-05 55.9716 -15.1209 12.4145 -0 70.3959 -0 -4.0893 3.77682 -0.134901 -9.02774 9.45129 1.11848e-05 -38.3225 7.32674 -1.2021 1.67534e-06 -80.5225 -1.97823e-06 2.41338 5.12305 0.107998 11.9632 -4.47484 -5.75473 11.6118 -8.9171 -55.818 -0 -0 65.4741 -4.40438e-05 -13.0756 -9.2158 2.13031 7.18432e-06 -8.77094 -9.89559 23.6057 -58.2353 -0 -0 58.7706 2.62366e-05 9.42913 -12.9468 -2.13096 -2.12164e-05 -30.3856 
-15.962 79.014 -3.7446 -11.0674 57.4127 15.4582 0 -0 0 -9.49889 -8.9433 21.4065 21.7312 -11.0494 7.00676e-05 55.9772 -15.1308 12.247 -0 70.1749 -0 -4.03322 3.77919 -0.133096 -9.01328 9.47853 -5.7329e-06 -38.0065 7.1359 -1.43766 0 -80.5547 -0 2.50226 5.21748 0.113999 12.0333 -4.55841 -5.95054 11.9922 -9.02411 -56.5636 -0 -0 64.2346 2.40168e-05 -13.3901 -9.06274 2.14746 1.89259e-06 -8.61048 -10.0571 23.8993 -58.036 -0 -0 58.7383 2.47293e-05 9.62649 -13.1188 -2.20472 -7.15808e-06 -30.6163 
-15.624 79.058 -3.6735 -10.8869 56.9311 15.6999 0 -0 0 -9.38698 -9.0838 21.4318 21.7494 -11.0702 6.35627e-05 55.9936 -15.145 12.071 -0 69.9778 -0 -3.97886 3.77146 -0.131096 -9.00488 9.50097 7.48057e-06 -37.7063 6.97531 -1.6496 0 -80.6103 0 2.57911 5.29318 0.1192 12.0976 -4.64387 -6.1425 12.4164 -9.16326 -57.2761 -0 -0 62.9522 6.47416e-06 -13.7336 -8.91759 2.16959 -4.70238e-06 -8.47975 -10.219 24.19 -57.8243 -0 -0 58.6982 -2.21183e-05 9.82373 -13.2769 -2.27722 -2.13507e-06 -30.815 
-15.282 79.101 -3.596 -10.6923 56.4428 15.9486 0 -0 0 -9.27343 -9.21479 21.4482 21.7671 -11.0876 -6.89381e-05 56.0207 -15.1659 11.8859 -0 69.806 -0 -3.92621 3.75273 -0.128701 -8.99996 9.51683 -5.61436e-07 -37.4237 6.84723 -1.83683 2.41241e-06 -80.6742 -2.84074e-06 2.64387 5.34853 0.123498 12.1575 -4.72964 -6.32757 12.881 -9.327 -57.9551 -0 -0 61.6271 9.71889e-06 -14.1087 -8.78858 2.19923 7.47847e-06 -8.33991 -10.3822 24.4802 -57.6006 -0 -0 58.6541 7.98314e-05 10.018 -13.4179 -2.34739 -1.15176e-05 -30.9913 
